<?xml version="1.0" encoding="UTF-8"?>
<svg version="1.1" xmlns="http://www.w3.org/2000/svg" width="274" height="306" viewBox="0 0 274 306">
    <path
        d="M0 0 C0.99 0 1.98 0 3 0 C3.16435547 1.0209375 3.16435547 1.0209375 3.33203125 2.0625 C4.27898893 7.8520299 5.31303928 13.61168315 6.44921875 19.3671875 C8.22617514 28.63024452 9.25241927 37.95140614 10.22949219 47.32714844 C10.45550929 49.47192674 10.69564064 51.61477117 10.9375 53.7578125 C11.07027344 55.0070752 11.20304687 56.25633789 11.33984375 57.54345703 C12.21777268 62.14024615 13.67359601 65.67359601 17 69 C19.07016888 69.35670917 19.07016888 69.35670917 21.375 69.3125 C22.14585937 69.32925781 22.91671875 69.34601563 23.7109375 69.36328125 C26.60004847 68.90477047 27.80903405 67.92238901 30 66 C31.27464883 63.94921091 31.27464883 63.94921091 32.21875 61.62109375 C32.59386719 60.78255859 32.96898437 59.94402344 33.35546875 59.08007812 C34.11991444 57.31506956 34.88293046 55.54944113 35.64453125 53.78320312 C36.01964844 52.94595703 36.39476562 52.10871094 36.78125 51.24609375 C37.2772168 50.09645142 37.2772168 50.09645142 37.78320312 48.92358398 C39.23068895 46.63531336 40.51467284 45.98089578 43 45 C47.78719209 51.6483324 52.18492573 58.42497723 56.3125 65.5 C56.8701001 66.44979736 57.4277002 67.39959473 58.00219727 68.37817383 C63.14449286 77.17349039 68.11775872 86.05821005 73 95 C73.44682129 95.81694336 73.89364258 96.63388672 74.35400391 97.47558594 C78.10008089 104.33234522 81.82855306 111.19859339 85.53173828 118.07861328 C86.17575106 119.27343074 86.82125294 120.46744679 87.46826172 121.66064453 C90.92941178 128.04547725 94.30604043 134.46894759 97.46875 141.0078125 C98.20254883 142.52205811 98.20254883 142.52205811 98.95117188 144.06689453 C100.10535725 147.29463733 100.32655295 149.59762371 100 153 C97.96006092 156.6578218 96.49580738 158.66946174 93 161 C89.09951363 162.05824635 85.36843151 162.13022061 81.34037781 162.14044189 C80.68429828 162.14341302 80.02821875 162.14638414 79.35225803 162.1494453 C77.16150205 162.15809269 74.97080097 162.15963717 72.7800293 162.16113281 C71.20608403 162.16576375 69.63213988 162.17078879 68.05819702 162.17617798 C63.78743141 162.18927647 59.51668151 162.19574183 55.24589896 162.20018864 C52.57587013 162.20312319 49.90584555 162.20722869 47.23581886 162.21169281 C38.87651804 162.22536036 30.51722699 162.23503093 22.15791577 162.2388947 C12.51810778 162.24337525 2.8784416 162.2609261 -6.76132327 162.2898953 C-14.21966443 162.31152877 -21.67796574 162.32159985 -29.13633794 162.32293582 C-33.58776157 162.32398255 -38.03905176 162.32986249 -42.49044228 162.34775543 C-46.67902332 162.36426519 -50.86737101 162.36637759 -55.05597305 162.35761642 C-56.58939045 162.35684763 -58.12282054 162.36116793 -59.65620613 162.37107468 C-76.72327986 162.47483512 -76.72327986 162.47483512 -83 157.375 C-85.18540615 152.18466039 -84.81130157 148.04125556 -82.78125 142.93359375 C-80.95851979 139.22364995 -79.01558425 135.60763614 -77 132 C-76.26669561 130.67070058 -75.5336279 129.34127058 -74.80078125 128.01171875 C-73.59845004 125.83880047 -72.39182438 123.66854131 -71.17724609 121.50244141 C-67.45239404 114.85770163 -63.84591066 108.15271888 -60.25 101.4375 C-53.8299355 89.46708416 -47.23372277 77.60190924 -40.56152344 65.77050781 C-39.11301889 63.20052195 -37.6687204 60.62823881 -36.2265625 58.0546875 C-35.42191159 56.61977115 -34.61722697 55.1848737 -33.8125 53.75 C-33.4621167 53.12464355 -33.1117334 52.49928711 -32.75073242 51.85498047 C-31.83932771 50.23354636 -30.91998805 48.61657945 -30 47 C-29.51660156 46.04738281 -29.03320312 45.09476563 -28.53515625 44.11328125 C-27 42 -27 42 -24.9140625 41.43359375 C-24.15867188 41.43488281 -23.40328125 41.43617188 -22.625 41.4375 C-18.16257158 41.4298326 -16.25123829 40.03101464 -13 37 C-11.58682892 34.3313932 -11.58682892 34.3313932 -10.68359375 31.30859375 C-10.31169922 30.19806641 -9.93980469 29.08753906 -9.55664062 27.94335938 C-9.18732422 26.78642578 -8.81800781 25.62949219 -8.4375 24.4375 C-7.68695197 22.16511539 -6.93565658 19.89297748 -6.18359375 17.62109375 C-5.82378418 16.51878418 -5.46397461 15.41647461 -5.09326172 14.28076172 C-3.49475587 9.48381629 -1.76193411 4.73897457 0 0 Z "
        fill="currentColor" transform="translate(128,131)" />
    <path
        d="M0 0 C0.69030794 -0.00709439 1.38061587 -0.01418877 2.09184223 -0.02149814 C4.39294465 -0.03902742 6.6923464 -0.02100165 8.99342346 -0.00291443 C10.6479621 -0.00805529 12.30249527 -0.01533783 13.95701599 -0.02459717 C18.44273143 -0.04309973 22.92785189 -0.0301794 27.41354251 -0.01050687 C32.11213786 0.00589321 36.81069593 -0.00293528 41.50930786 -0.00802612 C49.40043119 -0.01254601 57.29131741 0.00331512 65.18238831 0.03126526 C74.29836823 0.0633056 83.41392027 0.06330538 92.52993053 0.04605049 C101.30681296 0.03017107 110.0835389 0.03692878 118.86041451 0.0539875 C122.59193666 0.06085022 126.32333309 0.05983352 130.05485344 0.05244255 C134.45204018 0.04476562 138.84874171 0.05695156 143.24584579 0.08429146 C144.85706581 0.09116207 146.46833126 0.09128746 148.07954979 0.08407593 C150.28436394 0.07534678 152.48769245 0.09139293 154.69238281 0.11352539 C155.92440146 0.11633231 157.15642012 0.11913923 158.42577267 0.12203121 C162.83317498 0.76235804 165.22530028 2.14996266 168.90968323 4.62818909 C170.51235736 7.83353736 170.26964599 11.14240268 169.90968323 14.62818909 C168.68702698 17.92506409 168.68702698 17.92506409 166.84718323 21.37818909 C166.50066711 22.03810852 166.154151 22.69802795 165.7971344 23.37794495 C164.98852948 24.90995793 164.17155121 26.43756831 163.34815979 27.96168518 C161.71261523 30.99349401 160.10405435 34.03894454 158.49562073 37.08522034 C151.01777256 51.19626242 143.29199741 65.15446505 135.38673401 79.03102112 C129.45304186 89.46451154 123.63225873 99.91370334 118.38233948 110.71022034 C117.89636292 111.67315002 117.41038635 112.63607971 116.90968323 113.62818909 C116.53714417 114.43643127 116.1646051 115.24467346 115.78077698 116.07740784 C113.8655223 118.68839177 112.19635947 119.91180228 109.56983948 121.75709534 C104.16824047 125.79488637 101.9454673 130.46410066 99.34718323 136.56568909 C98.91083557 137.53570862 98.47448792 138.50572815 98.0249176 139.50514221 C96.96446109 141.87077597 95.92707872 144.24379858 94.90968323 146.62818909 C93.91968323 146.62818909 92.92968323 146.62818909 91.90968323 146.62818909 C91.12778737 142.01320154 90.34920182 137.39767019 89.57389832 132.78157043 C89.29823577 131.14051207 89.02217514 129.49952053 88.74571228 127.8585968 C86.73525677 115.90753107 84.85002257 103.95174594 83.29151917 91.93165588 C82.55110408 86.56875283 81.66074993 82.38637207 78.90968323 77.62818909 C78.90968323 76.96818909 78.90968323 76.30818909 78.90968323 75.62818909 C77.67218323 75.42193909 76.43468323 75.21568909 75.15968323 75.00318909 C74.1155426 74.82916565 74.1155426 74.82916565 73.05030823 74.65162659 C70.41908571 74.62281758 69.09821614 75.18763578 66.90968323 76.62818909 C60.32029952 87.61049527 56.72406361 100.79090512 53.08546448 113.00709534 C51.89248451 116.68115657 50.48327063 120.10462305 48.90968323 123.62818909 C47.25968323 123.62818909 45.60968323 123.62818909 43.90968323 123.62818909 C43.47140198 122.72842346 43.03312073 121.82865784 42.58155823 120.90162659 C34.94697442 105.36501194 26.57002324 90.21837083 18.02711487 75.16529846 C10.64218252 62.14232825 3.62883786 48.90588747 -3.39225769 35.68405151 C-5.19369392 32.29548664 -7.02335587 28.92460486 -8.87937927 25.56568909 C-15.1543606 14.01258801 -15.1543606 14.01258801 -14.17625427 7.52272034 C-10.81534907 1.65927061 -6.47518636 0.00308244 0 0 Z "
        fill="currentColor" transform="translate(58.09031677246094,32.37181091308594)" />
    <path
        d="M0 0 C0.99 0 1.98 0 3 0 C3.16435547 1.0209375 3.16435547 1.0209375 3.33203125 2.0625 C4.27898893 7.8520299 5.31303928 13.61168315 6.44921875 19.3671875 C8.22617514 28.63024452 9.25241927 37.95140614 10.22949219 47.32714844 C10.45550929 49.47192674 10.69564064 51.61477117 10.9375 53.7578125 C11.07027344 55.0070752 11.20304687 56.25633789 11.33984375 57.54345703 C12.21777268 62.14024615 13.67359601 65.67359601 17 69 C21.39751379 69.66524275 25.06268701 69.45909208 29.0625 67.5 C29.701875 67.005 30.34125 66.51 31 66 C29.63016497 69.16115776 29.0109362 69.9927092 26 72 C23.67612053 72.39387788 21.34206251 72.73486085 19 73 C19.71285156 73.7734375 20.42570312 74.546875 21.16015625 75.34375 C25.9186522 80.51530405 30.65313899 85.69811721 35.2578125 91.0078125 C37.31500399 93.36020635 39.40596915 95.68034966 41.5 98 C44.17048344 100.95869751 46.82298058 103.92926472 49.4375 106.9375 C52.19784541 110.11221597 55.02792558 113.21537436 57.875 116.3125 C61.25628885 120.01142507 64.48659015 123.78072084 67.625 127.6875 C71.02154385 131.91350287 74.61269129 135.73431678 78.56640625 139.44140625 C80 141 80 141 80 143 C32.15 143 -15.7 143 -65 143 C-65 142.34 -65 141.68 -65 141 C-64.34 141 -63.68 141 -63 141 C-62.73823975 140.41605469 -62.47647949 139.83210937 -62.20678711 139.23046875 C-60.9314567 136.87331346 -59.54355179 135.24332568 -57.69140625 133.3125 C-57.03229248 132.61987061 -56.37317871 131.92724121 -55.6940918 131.21362305 C-54.9906665 130.48312744 -54.28724121 129.75263184 -53.5625 129 C-52.10096494 127.46541264 -50.64002943 125.93025405 -49.1796875 124.39453125 C-48.46393555 123.64381348 -47.74818359 122.8930957 -47.01074219 122.11962891 C-42.60558707 117.47592362 -38.31289043 112.72921771 -34 108 C-33.0434978 106.959149 -32.08645372 105.91879573 -31.12890625 104.87890625 C-26.65781434 100.02132116 -22.22305586 95.14147664 -17.8984375 90.15234375 C-8.52307692 79.52307692 -8.52307692 79.52307692 -4 75 C-3.87700834 73.31290653 -3.82214742 71.62079097 -3.79467773 69.92944336 C-3.77473251 68.84839828 -3.75478729 67.76735321 -3.73423767 66.65354919 C-3.71752518 65.4775264 -3.70081268 64.3015036 -3.68359375 63.08984375 C-3.66281265 61.89267227 -3.64203156 60.69550079 -3.62062073 59.46205139 C-3.55499721 55.62059513 -3.49618097 51.77906799 -3.4375 47.9375 C-3.39432695 45.34048733 -3.35071307 42.74348194 -3.30664062 40.14648438 C-3.19930284 33.76439883 -3.09756069 27.38224207 -3 21 C-3.66 21 -4.32 21 -5 21 C-5.0825 22.093125 -5.165 23.18625 -5.25 24.3125 C-6 28 -6 28 -8.0625 29.9375 C-8.701875 30.288125 -9.34125 30.63875 -10 31 C-8.59643358 23.85658565 -6.42618635 17.24817592 -3.875 10.4375 C-3.50246094 9.42880859 -3.12992188 8.42011719 -2.74609375 7.38085938 C-1.83587803 4.91860915 -0.92043712 2.45844342 0 0 Z "
        fill="currentColor" transform="translate(128,131)" />
    <path
        d="M0 0 C-1.50649507 5.10445405 -3.72763039 9.53503564 -6.25 14.1875 C-6.61996094 14.87908203 -6.98992187 15.57066406 -7.37109375 16.28320312 C-8.57358256 18.52607048 -9.78553496 20.76359575 -11 23 C-11.45971191 23.84796143 -11.91942383 24.69592285 -12.39306641 25.56958008 C-16.16791148 32.51346949 -20.00967034 39.41863721 -23.875 46.3125 C-24.4848877 47.40103271 -25.09477539 48.48956543 -25.72314453 49.61108398 C-30.10875578 57.43055782 -34.52501315 65.23131164 -39 73 C-39.33 73 -39.66 73 -40 73 C-40.48341773 81.7731365 -39.02890804 89.46167866 -37 98 C-34.36 92.72 -31.72 87.44 -29 82 C-28 85 -28 85 -28.62084961 86.80932617 C-28.96124268 87.46392822 -29.30163574 88.11853027 -29.65234375 88.79296875 C-30.01650391 89.50517578 -30.38066406 90.21738281 -30.75585938 90.95117188 C-31.34077148 92.0581543 -31.34077148 92.0581543 -31.9375 93.1875 C-32.32357422 93.93708984 -32.70964844 94.68667969 -33.10742188 95.45898438 C-34.06271757 97.31060689 -35.03021577 99.15592452 -36 101 C-36.99 101 -37.98 101 -39 101 C-39.78189586 96.38501245 -40.56048141 91.7694811 -41.33578491 87.15338135 C-41.61144746 85.51232299 -41.88750809 83.87133144 -42.16397095 82.23040771 C-44.17442646 70.27934198 -46.05966065 58.32355685 -47.61816406 46.3034668 C-48.35857915 40.94056374 -49.24893329 36.75818298 -52 32 C-52 31.34 -52 30.68 -52 30 C-53.2375 29.79375 -54.475 29.5875 -55.75 29.375 C-56.44609375 29.25898437 -57.1421875 29.14296875 -57.859375 29.0234375 C-60.49059752 28.99462849 -61.81146709 29.55944669 -64 31 C-70.58938371 41.98230618 -74.18561962 55.16271603 -77.82421875 67.37890625 C-79.01719872 71.05296748 -80.42641259 74.47643396 -82 78 C-83.65 78 -85.3 78 -87 78 C-87.33 76.35 -87.66 74.7 -88 73 C-87.34 74.32 -86.68 75.64 -86 77 C-85.01 77 -84.02 77 -83 77 C-82.896875 76.175 -82.79375 75.35 -82.6875 74.5 C-82.14087374 71.7171754 -81.53311144 69.79264542 -80.4375 67.25 C-78.26780278 61.51483128 -77.84739806 56.01873196 -80.06323242 50.21533203 C-81.56740731 47.22137381 -83.18477545 44.33043844 -84.875 41.4375 C-85.46345703 40.39263428 -86.05191406 39.34776855 -86.65820312 38.27124023 C-88.41529656 35.16658178 -90.20181517 32.08100521 -92 29 C-92.75071777 27.70497559 -92.75071777 27.70497559 -93.51660156 26.38378906 C-95.98078389 22.13905849 -98.47692484 17.91441154 -100.99121094 13.69921875 C-102.39498261 11.33468563 -103.76969023 8.95511389 -105.125 6.5625 C-105.49882813 5.90378906 -105.87265625 5.24507813 -106.2578125 4.56640625 C-107 3 -107 3 -107 1 C-94.23017352 0.86913747 -81.46034264 0.73871442 -68.69050598 0.60884857 C-62.76062807 0.54852956 -56.83075176 0.48806059 -50.90087891 0.42724609 C-45.17560173 0.36853542 -39.45032063 0.31022233 -33.72503662 0.25218201 C-31.54343522 0.22999661 -29.36183527 0.20766924 -27.18023682 0.18519592 C-24.11885951 0.15368425 -21.05747743 0.12268258 -17.99609375 0.09179688 C-16.65065239 0.07777077 -16.65065239 0.07777077 -15.2780304 0.0634613 C-10.18504026 0.01268728 -5.09324557 -0.0086576 0 0 Z "
        fill="currentColor" transform="translate(189,78)" />
    <path
        d="M0 0 C4.65813163 1.00272892 7.4301306 3.58074278 9.99609375 7.4296875 C10.54768003 10.30214083 11.00566263 13.12898204 11.3984375 16.0234375 C11.52166885 16.8841687 11.64490021 17.7448999 11.77186584 18.63171387 C12.1663197 21.39673895 12.55032262 24.16309228 12.93359375 26.9296875 C13.44015738 30.5238001 13.95057191 34.11736305 14.4609375 37.7109375 C14.58632904 38.5978125 14.71172058 39.4846875 14.84091187 40.3984375 C15.72395088 46.61399174 16.65246958 52.82125531 17.625 59.0234375 C17.74785873 59.81302856 17.87071747 60.60261963 17.99729919 61.4161377 C18.53535806 64.80810923 19.16225106 68.09431672 19.99609375 71.4296875 C22.63609375 66.1496875 25.27609375 60.8696875 27.99609375 55.4296875 C28.99609375 58.4296875 28.99609375 58.4296875 28.37524414 60.23901367 C28.03485107 60.89361572 27.69445801 61.54821777 27.34375 62.22265625 C26.97958984 62.93486328 26.61542969 63.64707031 26.24023438 64.38085938 C25.85029297 65.11884766 25.46035156 65.85683594 25.05859375 66.6171875 C24.67251953 67.36677734 24.28644531 68.11636719 23.88867188 68.88867188 C22.93337618 70.74029439 21.96587798 72.58561202 20.99609375 74.4296875 C20.00609375 74.4296875 19.01609375 74.4296875 17.99609375 74.4296875 C17.21419789 69.81469995 16.43561234 65.1991686 15.66030884 60.58306885 C15.38464629 58.94201049 15.10858566 57.30101894 14.8321228 55.66009521 C12.82166729 43.70902948 10.9364331 31.75324435 9.37792969 19.7331543 C8.6375146 14.37025124 7.74716046 10.18787048 4.99609375 5.4296875 C4.99609375 4.7696875 4.99609375 4.1096875 4.99609375 3.4296875 C3.75859375 3.2234375 2.52109375 3.0171875 1.24609375 2.8046875 C0.55 2.68867187 -0.14609375 2.57265625 -0.86328125 2.453125 C-3.49450377 2.42431599 -4.81537334 2.98913419 -7.00390625 4.4296875 C-13.59328996 15.41199368 -17.18952587 28.59240353 -20.828125 40.80859375 C-22.02110497 44.48265498 -23.43031884 47.90612146 -25.00390625 51.4296875 C-26.65390625 51.4296875 -28.30390625 51.4296875 -30.00390625 51.4296875 C-30.33390625 49.7796875 -30.66390625 48.1296875 -31.00390625 46.4296875 C-30.34390625 47.7496875 -29.68390625 49.0696875 -29.00390625 50.4296875 C-28.01390625 50.4296875 -27.02390625 50.4296875 -26.00390625 50.4296875 C-25.89361084 49.60154541 -25.78331543 48.77340332 -25.66967773 47.92016602 C-24.9200547 43.99007415 -23.70303695 40.33448244 -22.3515625 36.58203125 C-22.09136826 35.84771378 -21.83117401 35.1133963 -21.56309509 34.35682678 C-20.73552212 32.02526018 -19.90095784 29.69626402 -19.06640625 27.3671875 C-18.50932993 25.79898283 -17.95268509 24.23062481 -17.39648438 22.66210938 C-9.13061207 -0.58684463 -9.13061207 -0.58684463 0 0 Z "
        fill="currentColor" transform="translate(132.00390625,104.5703125)" />
    <path
        d="M0 0 C0.5775 0.2475 1.155 0.495 1.75 0.75 C1.12867188 1.01554687 0.50734375 1.28109375 -0.1328125 1.5546875 C-9.19979895 6.67368723 -13.187588 29.4373659 -16.07421875 39.12890625 C-17.26719872 42.80296748 -18.67641259 46.22643396 -20.25 49.75 C-21.9 49.75 -23.55 49.75 -25.25 49.75 C-25.58 48.1 -25.91 46.45 -26.25 44.75 C-25.59 46.07 -24.93 47.39 -24.25 48.75 C-23.26 48.75 -22.27 48.75 -21.25 48.75 C-21.13970459 47.92185791 -21.02940918 47.09371582 -20.91577148 46.24047852 C-20.16614845 42.31038665 -18.9491307 38.65479494 -17.59765625 34.90234375 C-17.33746201 34.16802628 -17.07726776 33.4337088 -16.80918884 32.67713928 C-15.98161587 30.34557268 -15.14705159 28.01657652 -14.3125 25.6875 C-13.75542368 24.11929533 -13.19877884 22.55093731 -12.64257812 20.98242188 C-4.98559117 -0.55395457 -4.98559117 -0.55395457 0 0 Z "
        fill="currentColor" transform="translate(127.25,106.25)" />
    <path
        d="M0 0 C2.72820962 2.72820962 2.74401685 4.92084315 3.11328125 8.66796875 C2.93190442 12.4018296 1.37603516 14.19195844 -1 17 C-1.66 16.67 -2.32 16.34 -3 16 C-2.68289062 15.29488281 -2.36578125 14.58976562 -2.0390625 13.86328125 C-0.95461714 10.87494121 -0.6035641 8.34930342 -0.375 5.1875 C-0.26285156 3.72376953 -0.26285156 3.72376953 -0.1484375 2.23046875 C-0.09945312 1.49441406 -0.05046875 0.75835937 0 0 Z "
        fill="currentColor" transform="translate(225,273)" />
    <path
        d="M0 0 C1.17046875 0.03609375 2.3409375 0.0721875 3.546875 0.109375 C4.43890625 0.15578125 5.3309375 0.2021875 6.25 0.25 C6.25 0.58 6.25 0.91 6.25 1.25 C5.50234375 1.27578125 4.7546875 1.3015625 3.984375 1.328125 C-1.97185065 1.62147142 -1.97185065 1.62147142 -7.4375 3.75 C-9.41365382 7.51410252 -9.07039597 11.08485238 -8.75 15.25 C-9.41 14.92 -10.07 14.59 -10.75 14.25 C-10.85867302 12.66820385 -10.93589827 11.08422847 -11 9.5 C-11.04640625 8.61828125 -11.0928125 7.7365625 -11.140625 6.828125 C-10.75 4.25 -10.75 4.25 -9.15625 1.9375 C-5.94830578 -0.31222711 -3.87819613 -0.15512785 0 0 Z "
        fill="currentColor" transform="translate(56.75,34.75)" />
    <path
        d="M0 0 C0.5775 0.2475 1.155 0.495 1.75 0.75 C1.13382813 1.00136719 0.51765625 1.25273438 -0.1171875 1.51171875 C-2.60857966 2.95818636 -3.19702256 3.97391932 -4.375 6.5625 C-4.70242187 7.27019531 -5.02984375 7.97789063 -5.3671875 8.70703125 C-6.3746327 11.03841993 -7.35813934 13.3717049 -8.25 15.75 C-9.77562891 11.10046428 -8.36556833 7.98980703 -6.25 3.75 C-3.15 -0.35 -3.15 -0.35 0 0 Z "
        fill="currentColor" transform="translate(127.25,106.25)" />
    <path
        d="M0 0 C1.38317955 3.84216542 0.9279297 7.07414359 0 11 C-2.0625 12.9375 -2.0625 12.9375 -4 14 C-3.00956295 9.16371695 -2.04301154 4.52381127 0 0 Z "
        fill="currentColor" transform="translate(122,148)" />
    <path
        d="M0 0 C0.33 0 0.66 0 1 0 C1 1.98 1 3.96 1 6 C0.34 6 -0.32 6 -1 6 C-0.67 8.64 -0.34 11.28 0 14 C-0.66 13.67 -1.32 13.34 -2 13 C-2.05447047 11.58376784 -2.09300508 10.16691809 -2.125 8.75 C-2.14820313 7.96109375 -2.17140625 7.1721875 -2.1953125 6.359375 C-1.9828378 3.79268059 -1.28654105 2.2083933 0 0 Z "
        fill="currentColor" transform="translate(46,273)" />
    <path d="M0 0 C2.5 1.625 2.5 1.625 5 4 C5.3125 7.25 5.3125 7.25 5 10 C0 3.40909091 0 3.40909091 0 0 Z "
        fill="currentColor" transform="translate(73,99)" />
    <path
        d="M0 0 C3.48331435 3.01887244 4.79157144 5.56909529 6 10 C2.64888166 7.76592111 1.18446044 6.73784176 0.1875 2.75 C0.125625 1.8425 0.06375 0.935 0 0 Z "
        fill="currentColor" transform="translate(188,205)" />
</svg>